<!-- Created with PixiEditor (https://pixieditor.net) -->
<svg version="1.1" width="40" height="40" viewBox="0 0 37 37" xmlns="http://www.w3.org/2000/svg">
  <path d="M80 400L160 400L160 300L240 300L240 220L160 220L160 160L320 160L320 80L80 80L80 400Z" fill-rule="nonzero" transform="matrix(0.07229426, 1.2142567E-18, 0, 0.07210946, 4.937749, 1.193731)" fill="#ffffff" fill-opacity="1" stroke="#ffffff" stroke-width="2.645659923553467" stroke-linecap="square" stroke-linejoin="miter" opacity="1" id="path9-4-0" />
  <path d="M80 0L0 80L0 400L80 320L80 80L240 80L320 0L80 0Z" fill-rule="nonzero" transform="matrix(0.07229426, 1.2142567E-18, 0, 0.07210946, 4.937749, 1.193731)" fill="#cb333b" fill-opacity="1" stroke="#ffffff" stroke-width="2.645659923553467" stroke-linecap="square" stroke-linejoin="miter" opacity="1" id="path3-1-7" />
  <path d="M320 0L240 80L320 80L320 160L400 80L400 0L320 0ZM80 320L0 400L0 480L80 480L160 400L80 400L80 320Z" fill-rule="nonzero" transform="matrix(0.07229426, 1.2142567E-18, 0, 0.07210946, 4.937749, 1.193731)" fill="#ff585d" fill-opacity="1" stroke="#ffffff" stroke-width="2.645659923553467" stroke-linecap="square" stroke-linejoin="miter" opacity="1" id="path7-7-2" />
  <path d="M400 80L320 160L160 160L160 220L240 220L240 300L160 300L160 400L80 480L161.008 480C167.073 480 172.445 476.095 174.319 470.326L188.799 425.761C190.183 421.499 193.529 418.164 197.791 416.779L208.922 413.162C213.184 411.776 217.853 412.512 221.479 415.146L259.379 442.689C264.285 446.254 270.936 446.254 275.843 442.689L309.815 417.998C314.722 414.434 316.774 408.12 314.9 402.351L300.42 357.785C299.034 353.523 299.78 348.854 302.414 345.228L309.297 335.761C311.931 332.135 316.133 329.984 320.614 329.983L367.474 329.994C373.54 329.994 378.912 326.078 380.786 320.31L393.767 280.374C395.641 274.606 393.587 268.281 388.682 264.716L350.772 237.173C347.147 234.539 345.005 230.337 345.005 225.856L345.005 214.146C345.006 209.665 347.147 205.452 350.772 202.819L394.232 171.244C397.858 168.611 400 164.399 400 159.917L400 80Z" fill-rule="nonzero" transform="matrix(0.07229426, 1.2142567E-18, 0, 0.07210946, 4.937749, 1.193731)" fill="#418fde" fill-opacity="1" stroke="#ffffff" stroke-width="2.645659923553467" stroke-linecap="square" stroke-linejoin="miter" opacity="1" id="path8-4-4" />
</svg>